<?xml version="1.0" standalone="no"?>
<!DOCTYPE svg PUBLIC "-//W3C//DTD SVG 20010904//EN"
 "http://www.w3.org/TR/2001/REC-SVG-20010904/DTD/svg10.dtd">
<svg version="1.0" xmlns="http://www.w3.org/2000/svg"
 width="683.521490pt" height="1709.697949pt" viewBox="0 0 683.521490 1709.697949"
 preserveAspectRatio="xMidYMid meet">

<g transform="translate(-612.183607,1835.927353) scale(0.100000,-0.100000)"
fill="#000000" stroke="none">
<path d="M9495 18335 c-200 -42 -282 -68 -410 -134 -246 -127 -483 -342 -652
-594 -175 -260 -270 -529 -313 -887 -6 -47 -14 -101 -18 -120 l-8 -35 -239 -6
c-357 -9 -379 -12 -472 -67 -138 -80 -277 -246 -384 -461 -79 -159 -90 -198
-151 -521 -22 -120 -23 -145 -23 -610 0 -267 2 -588 5 -715 l5 -230 -32 -80
c-32 -78 -63 -185 -97 -335 -10 -41 -26 -109 -37 -150 -10 -41 -28 -129 -39
-195 -31 -185 -38 -212 -87 -330 -25 -60 -63 -162 -83 -225 -21 -63 -57 -169
-80 -235 -24 -66 -53 -160 -65 -210 -13 -49 -43 -146 -67 -215 -47 -131 -72
-217 -84 -285 -4 -22 -8 -204 -9 -405 -1 -201 -10 -542 -20 -758 -16 -335 -17
-405 -6 -465 8 -40 16 -144 18 -232 2 -88 9 -173 16 -190 6 -16 29 -59 51 -95
l41 -65 -1 -110 c0 -97 -11 -193 -45 -411 -24 -159 -6 -446 36 -572 43 -125
138 -270 230 -351 88 -76 371 -234 512 -285 91 -32 122 -27 178 29 38 37 43
49 54 117 13 79 14 62 -34 417 -28 209 -16 301 45 356 17 15 22 16 36 4 16
-13 66 -113 94 -189 24 -65 57 -100 94 -100 20 0 40 8 51 20 17 18 17 28 6
127 -49 425 -65 488 -196 754 -47 96 -90 190 -96 210 -9 30 -5 59 29 200 81
327 102 450 100 599 -2 134 1 155 51 406 10 55 27 144 36 199 18 105 49 220
64 244 24 37 55 -24 81 -158 27 -144 92 -266 184 -343 102 -86 107 -98 87
-191 -5 -23 -17 -78 -26 -122 -9 -44 -43 -188 -75 -320 -33 -132 -66 -274 -75
-315 -20 -93 -38 -399 -30 -500 9 -112 33 -339 52 -475 10 -81 14 -154 10
-225 -4 -58 -2 -159 3 -225 5 -66 16 -214 24 -330 21 -283 34 -417 46 -495 18
-117 31 -471 18 -507 -9 -25 -8 -51 8 -130 10 -54 19 -128 19 -164 0 -56 -4
-72 -27 -105 -31 -45 -34 -77 -16 -165 10 -50 10 -61 -4 -76 -23 -26 -38 -89
-38 -164 0 -61 -3 -69 -41 -120 -58 -78 -89 -142 -158 -337 -81 -225 -97 -275
-132 -412 -51 -197 -92 -422 -129 -700 -20 -155 -39 -244 -66 -308 -22 -55
-25 -75 -21 -145 2 -45 10 -123 17 -173 l14 -91 -31 -84 c-56 -151 -56 -153
-42 -239 11 -71 10 -87 -9 -179 -26 -120 -27 -177 -6 -251 38 -136 45 -182 47
-300 2 -126 -16 -364 -35 -475 -17 -97 -22 -675 -6 -705 17 -33 124 -102 218
-141 41 -17 98 -42 125 -54 64 -29 214 -82 285 -102 310 -82 869 -81 1119 3
158 53 166 65 165 229 -1 203 -44 322 -194 534 -81 116 -156 242 -240 406 -84
163 -103 246 -98 415 3 107 5 120 37 185 36 74 38 93 30 250 -4 74 -2 84 25
128 38 64 49 118 35 170 -6 23 -18 50 -26 59 -22 25 -11 100 32 223 31 85 54
176 95 365 50 235 100 419 155 575 61 171 66 187 115 345 22 74 70 201 105
281 73 168 96 232 135 384 16 61 35 135 43 165 8 30 34 167 57 304 44 262 72
389 91 413 33 39 50 -62 56 -324 5 -232 5 -232 -22 -320 -25 -80 -27 -93 -16
-144 15 -74 14 -140 -3 -197 -16 -56 -57 -225 -90 -377 -38 -177 -54 -323 -66
-595 -17 -409 -17 -411 -39 -462 -30 -66 -35 -123 -18 -197 12 -49 13 -80 5
-140 -5 -42 -6 -114 -2 -161 4 -47 8 -175 8 -285 2 -158 -1 -206 -13 -230 -8
-16 -17 -53 -19 -81 -4 -43 1 -64 28 -123 36 -77 35 -65 5 -241 -14 -76 -17
-173 -18 -486 -2 -370 -1 -393 17 -413 23 -26 89 -44 236 -66 170 -25 320 -51
455 -80 362 -76 407 -83 611 -96 199 -12 484 0 584 25 198 50 318 96 347 135
18 23 16 179 -3 263 -34 148 -122 254 -359 432 -124 94 -350 282 -404 336 -24
25 -59 67 -77 94 -32 48 -33 52 -27 126 5 62 2 82 -13 110 -22 42 -37 255 -38
530 l-1 175 49 100 c56 114 66 167 42 213 -21 42 -20 123 3 230 11 48 29 137
41 197 12 61 33 162 46 225 14 63 32 147 40 185 8 39 19 88 24 110 5 22 12 60
15 85 15 103 47 203 103 321 62 128 134 306 159 394 8 28 21 131 29 230 12
148 12 214 3 372 -12 199 -10 226 27 380 12 46 13 74 6 114 -8 41 -5 94 10
219 10 91 23 201 29 245 35 302 48 691 32 945 -33 513 -48 690 -73 880 -6 41
-15 116 -21 165 -6 50 -15 117 -19 150 -33 262 -70 724 -70 883 0 121 16 289
30 328 10 26 35 32 43 10 3 -8 48 -79 100 -158 52 -79 170 -269 262 -423 199
-332 343 -553 402 -616 47 -50 63 -90 63 -155 0 -48 15 -94 63 -196 19 -40 42
-98 51 -130 17 -59 46 -306 46 -390 0 -60 22 -106 55 -114 55 -14 98 47 139
197 31 115 65 129 102 41 33 -79 9 -175 -84 -337 -32 -55 -63 -113 -70 -128
-15 -35 -16 -191 -1 -220 17 -33 61 -77 76 -77 8 0 36 20 62 45 26 25 53 45
58 45 6 0 29 -18 51 -40 22 -22 47 -40 55 -40 15 0 60 34 108 82 102 99 231
309 259 419 32 126 47 319 30 409 -31 173 -129 422 -240 609 -35 61 -36 78 -5
211 20 90 16 144 -19 223 -38 85 -69 214 -68 280 2 82 -10 127 -68 253 -58
125 -60 130 -93 204 -13 30 -33 75 -45 100 -93 206 -120 271 -162 380 -26 69
-84 213 -130 320 -45 107 -91 224 -102 260 -11 36 -36 87 -55 113 -29 40 -34
53 -29 80 17 82 18 156 3 204 -15 45 -26 91 -63 273 -22 109 -54 310 -54 346
0 17 -7 54 -15 82 -18 60 -38 67 -89 29 -17 -13 -51 -31 -76 -39 -60 -21 -168
-40 -180 -33 -14 9 -12 89 4 159 8 34 22 106 31 161 26 155 34 176 77 198 62
33 65 27 73 -147 4 -96 11 -159 19 -164 6 -6 26 -13 43 -17 29 -6 34 -4 43 20
13 33 13 328 0 456 -21 217 -97 417 -231 607 -97 138 -104 137 -82 -13 21
-136 20 -333 -1 -490 -23 -177 -29 -208 -41 -212 -6 -2 -22 23 -36 54 -24 53
-39 97 -68 208 -6 22 -18 139 -26 260 -14 194 -31 321 -65 489 -9 46 -55 146
-103 224 -44 71 -47 88 -37 160 17 120 13 169 -26 277 -57 157 -58 148 29 278
116 174 199 366 268 627 27 98 37 393 19 525 -23 167 -23 176 4 261 35 106 39
218 11 289 -29 75 -91 191 -146 273 -27 40 -49 75 -49 78 0 3 -28 45 -62 92
-65 90 -188 220 -293 308 -55 47 -178 134 -188 134 -3 0 -35 18 -73 40 -68 40
-207 97 -299 124 -125 37 -216 46 -434 45 -185 0 -232 -4 -326 -24z m623 -70
c216 -46 312 -85 472 -191 179 -118 475 -383 453 -405 -8 -8 -22 -5 -52 10
-54 28 -198 75 -286 94 -286 62 -604 46 -853 -44 -189 -68 -284 -116 -462
-234 -211 -139 -381 -323 -449 -483 -22 -52 -22 -54 -5 -110 38 -128 45 -199
53 -492 11 -382 14 -395 188 -626 46 -61 113 -141 151 -178 157 -157 405 -277
673 -328 94 -17 154 -21 334 -22 220 0 255 4 375 43 100 33 141 43 146 38 18
-17 -114 -157 -148 -157 -8 0 -18 -4 -23 -9 -6 -5 -46 -17 -90 -27 -62 -14
-124 -17 -280 -17 -200 0 -255 6 -422 48 -239 61 -767 360 -915 518 -43 46
-68 45 -68 -3 0 -48 28 -94 125 -209 66 -77 504 -314 706 -381 324 -108 575
-139 866 -106 93 10 123 18 185 48 40 20 92 53 115 73 47 40 67 39 57 -3 -41
-171 -258 -261 -627 -262 -206 0 -317 16 -527 77 -96 27 -300 102 -314 115 -6
4 -16 8 -22 8 -20 0 -324 144 -359 170 -5 4 -37 22 -70 40 -132 73 -151 85
-229 140 -106 76 -205 174 -305 302 -27 34 -64 119 -79 179 -7 26 -14 54 -18
63 -14 36 26 14 67 -38 51 -64 96 -91 161 -99 48 -7 78 8 78 36 0 7 18 44 41
82 102 176 148 438 100 576 -10 30 -47 114 -81 187 -55 118 -62 139 -58 181 8
81 128 294 255 451 67 82 209 224 233 232 24 8 -4 58 -32 58 -44 0 -133 -70
-244 -191 -76 -83 -237 -306 -274 -379 -28 -57 -49 -80 -70 -80 -22 0 -100
-57 -100 -73 0 -7 28 -26 63 -42 117 -56 209 -180 237 -322 28 -143 -55 -299
-187 -349 -34 -13 -54 -15 -91 -8 l-47 9 4 115 c2 85 -1 125 -11 150 -19 45
-67 102 -82 97 -7 -2 -11 -42 -11 -119 0 -100 -3 -119 -19 -137 -11 -12 -26
-21 -34 -21 -21 0 -76 39 -92 64 -15 24 -40 138 -40 182 0 40 23 107 51 145
16 23 19 33 10 42 -18 18 -13 96 14 234 32 158 72 276 141 414 93 188 189 317
363 489 277 276 571 425 891 454 97 9 396 -3 468 -19z m502 -678 c123 -32 206
-68 275 -120 169 -128 267 -290 311 -512 25 -127 25 -447 1 -560 -51 -234
-157 -445 -251 -500 -74 -43 -82 -25 -35 85 60 141 73 228 73 490 0 277 -22
439 -94 697 -43 152 -68 173 -216 181 -140 7 -156 -12 -113 -134 16 -46 49
-187 49 -210 0 -3 -26 -33 -58 -67 -75 -81 -109 -131 -167 -250 -26 -54 -55
-101 -63 -105 -22 -8 -79 60 -164 198 -39 63 -82 126 -95 140 -22 24 -25 24
-51 10 -33 -19 -99 -133 -162 -280 -38 -86 -50 -106 -69 -108 -27 -4 -32 1
-141 145 -39 50 -86 122 -106 160 -72 134 -89 135 -153 7 -25 -50 -63 -130
-85 -178 -21 -47 -44 -86 -51 -86 -20 0 -62 62 -81 119 -24 76 -15 206 20 285
86 194 395 429 696 529 107 36 175 54 255 66 39 6 81 13 95 15 51 9 327 -4
380 -17z m-1132 -849 c37 -75 43 -228 8 -228 -7 0 -25 27 -40 61 -20 47 -26
77 -26 133 0 103 18 114 58 34z m-1417 -265 c9 -9 10 -25 3 -60 l-9 -48 -165
-5 c-164 -6 -165 -6 -240 -42 -178 -86 -297 -256 -354 -508 -15 -68 -20 -142
-37 -635 -9 -288 -26 -443 -52 -503 -6 -15 -62 -108 -123 -207 -61 -99 -114
-190 -118 -202 -9 -28 -22 -29 -36 -3 -16 29 -8 547 9 629 13 63 13 65 -8 79
-19 13 -21 23 -21 107 l0 93 44 53 c45 55 65 102 48 113 -5 3 -35 0 -66 -6
-69 -15 -79 -6 -73 65 4 45 9 53 66 105 54 50 63 64 76 117 8 32 15 87 15 121
0 76 37 225 80 319 43 95 127 219 192 282 58 58 74 70 157 120 l56 34 272 -3
c198 -2 275 -6 284 -15z m-143 -267 c82 -22 101 -47 64 -83 -36 -35 -70 -88
-76 -119 -16 -72 -103 -179 -213 -260 -75 -55 -100 -97 -72 -115 19 -12 35
-11 126 6 100 19 232 20 239 2 9 -24 -82 -281 -119 -338 -50 -77 -69 -97 -187
-195 -58 -48 -125 -107 -150 -130 -69 -65 -122 -105 -134 -101 -14 5 -13 123
3 487 6 157 19 321 27 365 32 166 89 280 194 386 104 105 175 127 298 95z
m400 -358 c41 -174 283 -405 657 -625 161 -95 409 -219 565 -283 30 -12 74
-31 96 -41 182 -80 427 -129 655 -129 239 0 400 29 538 96 47 23 87 41 89 39
6 -6 -31 -59 -58 -83 -192 -178 -507 -223 -1000 -146 -214 34 -532 130 -687
207 -140 71 -390 230 -558 356 -137 102 -302 270 -338 344 -33 68 -50 148 -41
196 10 52 43 121 58 121 7 0 18 -23 24 -52z m-127 -350 c22 -41 115 -151 193
-230 104 -105 538 -437 676 -518 163 -96 484 -234 629 -271 306 -77 791 -93
976 -32 90 29 195 100 249 168 40 50 57 45 89 -22 45 -96 73 -257 83 -478 l7
-150 53 -53 c99 -97 97 -85 105 -492 8 -394 9 -392 -54 -404 -48 -9 -79 6
-102 48 -11 20 -34 43 -54 52 -34 17 -48 16 -221 -2 -83 -8 -90 0 -100 126 -5
58 -12 117 -15 132 l-6 26 83 7 c46 3 136 5 200 5 112 -2 117 -1 131 22 18 27
32 153 22 197 -12 55 -38 61 -277 61 -151 0 -220 -4 -238 -13 -46 -23 -54 -69
-53 -334 1 -307 23 -487 66 -541 50 -63 354 -76 512 -22 35 12 56 15 63 8 23
-23 -3 -718 -29 -733 -15 -10 -35 7 -53 48 -63 139 -121 248 -147 280 -16 19
-54 48 -85 62 -50 24 -73 27 -242 37 -289 16 -913 -3 -1019 -31 -42 -11 -42
-43 1 -76 20 -15 36 -35 36 -44 0 -10 -27 -49 -60 -87 -139 -159 -265 -331
-539 -734 -140 -207 -161 -233 -249 -323 -113 -115 -257 -211 -388 -258 -49
-18 -82 -21 -189 -22 -145 0 -185 10 -185 45 0 13 22 66 49 118 51 100 66 144
97 274 10 43 25 87 34 98 9 11 39 23 75 29 187 34 256 54 375 113 179 89 262
178 473 509 195 305 201 325 199 662 -1 323 -35 860 -63 1005 -39 200 -68 289
-157 468 -208 417 -464 697 -882 965 -159 103 -170 118 -150 211 11 54 43 116
60 116 5 0 15 -10 21 -22z m-76 -343 c179 -65 424 -233 597 -409 172 -175 334
-491 397 -771 56 -253 87 -754 78 -1285 -5 -326 -6 -332 -56 -499 -22 -72
-135 -280 -174 -321 -93 -95 -330 -169 -593 -185 -148 -8 -181 12 -149 89 19
44 14 75 -26 197 -16 48 -29 96 -29 106 0 29 21 43 158 113 68 34 121 67 119
73 -2 7 -32 17 -68 22 -105 18 -151 65 -118 124 8 14 73 62 146 107 217 135
443 314 443 350 0 8 -2 14 -3 14 -2 0 -56 -26 -120 -59 -178 -91 -287 -128
-287 -100 0 6 37 66 82 132 198 293 231 346 263 412 94 194 112 337 75 575
-61 390 -196 668 -450 920 -111 111 -200 169 -325 212 -66 22 -215 48 -283 48
-57 0 -53 13 21 78 115 100 160 108 302 57z m-116 -275 c193 -61 350 -184 463
-360 110 -173 194 -377 233 -563 22 -104 29 -242 16 -317 -11 -65 -67 -192
-86 -194 -5 0 -12 28 -15 63 -3 36 -10 66 -16 68 -6 2 -23 -31 -38 -74 -58
-166 -80 -221 -119 -293 -69 -130 -82 -143 -92 -92 -13 65 -79 310 -92 341 -9
20 -18 30 -23 25 -5 -5 -14 -75 -19 -154 -10 -156 -45 -342 -84 -455 -34 -98
-172 -376 -201 -408 -35 -38 -58 -34 -103 20 -49 57 -73 55 -73 -6 0 -42 18
-66 73 -99 35 -21 34 -40 -7 -115 -18 -34 -52 -98 -76 -142 -23 -44 -48 -86
-55 -94 -24 -25 -77 -4 -170 68 -50 37 -105 76 -123 85 -32 17 -34 16 -57 -6
-14 -13 -25 -27 -25 -33 0 -5 26 -43 58 -82 89 -111 117 -181 96 -237 -9 -23
-22 -20 -115 27 -204 104 -435 167 -617 167 -101 0 -91 -19 21 -41 251 -50
388 -124 535 -291 130 -148 144 -181 98 -241 -33 -44 -43 -91 -51 -241 -6
-124 -31 -279 -54 -339 -15 -40 -49 -49 -203 -56 -76 -4 -140 -10 -144 -14
-15 -14 20 -36 84 -53 89 -23 170 -62 184 -87 6 -12 8 -51 6 -95 -6 -84 -16
-98 -80 -109 -21 -3 -38 -11 -38 -18 0 -7 24 -28 52 -46 64 -39 73 -50 95
-117 21 -67 12 -78 -48 -58 -106 35 -341 66 -497 66 -129 0 -213 -11 -357 -45
-152 -36 -152 -36 -164 -21 -8 10 -5 30 14 81 28 74 38 192 69 831 17 342 13
329 135 448 45 43 81 82 81 87 0 5 -38 8 -85 7 -74 -3 -86 -1 -100 17 -21 27
-14 89 22 196 41 122 96 214 173 289 89 88 170 126 338 161 34 7 62 18 62 24
0 13 -73 31 -165 40 -58 6 -212 -7 -247 -20 -29 -11 -32 21 -8 67 28 54 111
165 189 254 34 37 61 74 61 81 0 17 -32 33 -83 41 -27 5 -43 13 -45 24 -2 9
18 50 45 93 39 63 54 103 85 223 21 81 52 217 68 302 57 287 78 367 129 474
16 33 37 81 47 106 21 50 115 213 177 305 123 182 253 325 415 456 72 58 115
82 177 100 47 13 204 1 274 -21z m3609 -840 c17 -35 22 -61 22 -126 0 -81 0
-82 -39 -125 -58 -65 -65 -52 -59 123 3 79 9 151 13 161 12 29 38 15 63 -33z
m-628 -541 c0 -32 -19 -59 -41 -59 -32 0 -33 27 -2 59 30 31 43 31 43 0z
m-135 -509 l0 -75 -32 -3 c-37 -4 -47 11 -56 78 -7 56 12 82 57 78 l31 -3 0
-75z m834 8 c5 -13 14 -57 21 -98 52 -317 69 -376 124 -433 44 -47 55 -81 32
-106 -33 -36 -251 -92 -366 -94 -69 -2 -75 -1 -73 18 1 11 8 67 14 125 6 58
14 209 18 335 l6 230 80 16 c44 8 87 18 95 21 28 12 40 8 49 -14z m-1053 -729
c14 -11 15 -37 12 -179 -2 -113 -8 -173 -17 -189 -17 -31 -2 -84 39 -136 16
-21 30 -44 30 -51 0 -24 39 -54 69 -54 23 0 44 17 110 86 44 47 81 90 81 95 0
4 -36 16 -81 25 -88 19 -99 30 -99 97 1 109 53 230 104 243 36 9 83 -21 108
-69 20 -36 23 -57 23 -147 -1 -65 -5 -114 -13 -127 -9 -17 -10 -28 -2 -42 28
-53 20 -425 -9 -454 -8 -8 -34 -3 -93 18 -76 26 -169 37 -185 22 -16 -16 14
-38 100 -72 52 -21 107 -47 122 -60 l28 -22 -29 -52 c-32 -59 -86 -111 -185
-177 -68 -45 -83 -63 -73 -88 9 -23 25 -25 130 -16 54 5 102 6 106 4 14 -9 9
-172 -6 -207 -14 -34 -67 -82 -122 -110 -91 -47 -328 -81 -540 -78 -183 2
-521 34 -694 65 -285 52 -281 51 -290 36 -6 -8 -10 -35 -10 -60 -1 -71 -19
-184 -33 -197 -15 -15 -118 6 -145 30 -9 8 -27 18 -39 21 -30 10 -47 73 -40
153 3 39 0 68 -7 78 -11 15 -72 28 -290 64 -61 9 -111 22 -113 27 -2 5 54 43
124 84 235 137 297 199 569 565 90 121 177 236 192 255 l29 34 54 -34 c69 -45
121 -46 174 -5 81 61 123 198 68 220 -20 7 -53 -26 -53 -54 0 -22 -47 -71 -68
-71 -10 0 -24 6 -31 13 -10 10 -16 7 -31 -13 l-19 -25 -30 29 c-38 37 -39 61
-3 113 30 46 323 371 352 391 16 11 23 11 44 -3 54 -36 126 -165 126 -226 0
-10 13 -58 30 -106 39 -118 66 -143 152 -143 45 0 91 10 163 34 55 19 119 40
143 46 45 11 51 20 28 39 -11 9 -48 9 -161 0 -124 -10 -148 -10 -159 2 -30 32
-49 339 -23 371 20 26 36 28 205 24 114 -3 167 -8 178 -17z m1244 -149 c19
-46 1 -74 -68 -109 -86 -43 -156 -60 -262 -63 l-95 -3 3 24 c1 14 10 33 19 44
40 43 281 135 359 136 26 1 34 -4 44 -29z m82 -187 c28 -34 40 -80 33 -131 -6
-45 -4 -52 23 -83 50 -58 89 -139 137 -284 45 -135 67 -194 105 -280 10 -22
28 -65 41 -95 33 -78 114 -232 171 -324 27 -44 47 -85 44 -92 -3 -7 -18 -16
-33 -20 -256 -57 -412 -108 -610 -198 -79 -36 -155 -69 -169 -72 -26 -7 -27
-6 -20 30 4 20 20 64 36 99 40 84 39 99 -9 121 -47 20 -86 75 -77 110 7 28 72
92 191 186 128 101 119 121 -23 53 -82 -38 -166 -63 -217 -63 -27 0 -37 6 -54
34 -35 56 -28 107 30 225 36 74 48 106 40 114 -6 6 -45 10 -96 8 -90 -2 -125
8 -125 39 0 32 48 78 164 154 61 41 120 84 130 95 40 45 -8 64 -107 42 -147
-32 -159 -34 -175 -17 -25 25 -3 56 100 138 149 119 162 128 275 179 116 52
170 61 195 32z m-4121 -197 c4 -15 13 -81 18 -145 16 -169 31 -287 47 -363 16
-78 19 -231 4 -259 -16 -29 -36 -23 -89 26 -82 77 -141 215 -141 331 0 108 70
383 108 427 22 25 44 18 53 -17z m329 -1210 c58 -8 157 -24 220 -36 236 -45
417 -82 495 -101 44 -11 112 -24 150 -29 81 -11 146 -22 263 -44 519 -99 1125
-126 1367 -61 113 30 216 79 255 120 41 43 50 20 50 -124 0 -109 -3 -132 -21
-166 -60 -114 -378 -485 -415 -485 -27 0 -15 151 26 325 32 135 35 158 19 153
-25 -7 -76 -128 -154 -363 -88 -265 -125 -357 -196 -493 -98 -185 -238 -372
-279 -372 -13 0 -26 23 -50 88 -72 193 -243 515 -302 568 -89 82 -420 237
-418 197 1 -5 26 -28 56 -53 183 -148 328 -368 398 -601 23 -78 34 -126 67
-297 16 -85 0 -305 -25 -330 -4 -3 -37 9 -73 28 -109 54 -172 80 -267 111
-181 58 -521 113 -672 107 l-79 -3 0 -113 c0 -135 5 -142 99 -142 135 0 382
-38 531 -81 210 -60 345 -131 380 -200 28 -53 12 -152 -33 -201 -14 -16 -13
-20 3 -38 16 -18 17 -26 6 -97 -7 -43 -28 -141 -48 -218 -19 -77 -39 -158 -44
-180 -5 -22 -16 -65 -25 -95 -23 -78 -28 -125 -15 -161 13 -38 -2 -99 -31
-126 -21 -19 -4 -21 -233 35 -219 54 -329 67 -565 66 -231 -1 -289 -9 -536
-73 -154 -40 -212 -47 -220 -28 -3 9 11 53 32 99 l37 83 -17 170 c-29 286 -36
364 -47 540 -5 94 -13 209 -16 257 -5 83 -5 87 20 110 30 28 124 59 266 88
119 25 146 34 157 51 10 17 5 174 -6 205 -8 20 -16 24 -54 24 -49 0 -138 -19
-231 -49 -94 -30 -167 -43 -178 -32 -7 7 -6 29 3 65 14 58 13 65 -19 245 -25
137 -26 200 -5 272 32 107 88 185 255 355 54 55 99 104 99 107 0 20 -57 1
-130 -44 -136 -82 -160 -77 -160 38 -1 211 112 838 165 919 18 28 11 28 145
10z m2168 -71 c3 -47 -30 -139 -51 -143 -19 -4 -58 79 -60 127 -1 42 25 63 73
59 33 -3 35 -5 38 -43z m2128 -50 c32 -35 114 -191 114 -219 0 -8 5 -18 10
-21 6 -3 10 -17 10 -30 0 -17 -7 -26 -22 -30 -195 -42 -356 -92 -463 -141 -30
-14 -56 -18 -87 -16 -14 2 -78 113 -78 137 0 15 -35 34 -61 35 -88 1 -40 132
75 204 113 73 246 113 375 115 l94 1 33 -35z m-5620 -291 c124 -25 225 -64
251 -96 6 -7 13 -55 17 -106 4 -51 9 -98 12 -106 3 -7 -2 -20 -10 -29 -12 -12
-65 -16 -283 -23 -147 -4 -338 -8 -423 -9 l-155 0 1 85 c0 47 6 102 13 124 19
54 73 110 126 131 110 42 321 55 451 29z m4165 -254 c4 -14 7 -81 8 -150 1
-69 5 -152 10 -185 5 -33 16 -175 25 -315 9 -140 21 -329 27 -420 6 -91 15
-183 21 -205 5 -22 12 -50 15 -63 4 -16 -2 -31 -20 -50 -53 -55 -142 -85 -404
-137 -95 -19 -223 -46 -285 -59 -181 -39 -426 -77 -471 -74 -47 3 -53 15 -42
76 5 30 27 57 122 148 64 61 112 113 107 116 -5 4 -34 -2 -64 -13 -53 -19 -85
-19 -78 0 2 5 53 62 113 126 61 65 194 223 297 352 103 128 208 258 234 289
78 91 39 74 -64 -29 -133 -132 -138 -130 -63 24 107 216 351 542 435 580 52
23 68 20 77 -11z m1538 -25 c16 -8 44 -32 62 -54 55 -64 150 -267 178 -381 5
-19 23 -89 40 -154 35 -134 35 -142 20 -281 -19 -175 -33 -216 -107 -306 -72
-88 -112 -118 -131 -95 -12 14 -1 49 47 157 73 163 63 302 -30 420 -38 48 -43
62 -63 168 -29 159 -56 206 -112 199 -26 -3 -28 -6 -30 -50 -4 -98 -45 -138
-143 -138 -59 0 -69 3 -92 28 -42 46 -60 107 -65 222 -4 96 -3 109 19 149 27
50 91 91 178 115 73 20 193 20 229 1z m-5476 -346 c35 -18 64 -56 138 -180 98
-164 131 -258 133 -379 1 -84 -2 -99 -22 -128 -13 -17 -30 -32 -37 -32 -18 0
-55 49 -89 118 -31 62 -54 67 -97 21 -51 -55 -71 -142 -71 -314 -1 -82 5 -191
11 -241 17 -127 19 -286 4 -291 -29 -10 -93 70 -152 191 -33 67 -63 134 -66
148 -8 32 -30 52 -45 43 -6 -4 -10 -58 -10 -141 0 -126 -1 -134 -19 -134 -32
0 -86 90 -126 210 -28 81 -50 88 -49 15 0 -27 3 -75 5 -105 6 -82 -18 -73 -64
25 -69 147 -94 190 -109 193 -9 2 -19 -6 -23 -17 -3 -12 -13 -21 -20 -21 -18
0 -60 56 -74 100 -13 42 -18 151 -7 169 6 9 48 12 162 10 136 -2 157 0 174 16
11 10 20 21 20 25 0 4 -46 10 -102 13 -112 5 -198 27 -229 58 -22 22 -21 48 6
199 7 41 18 104 24 140 36 216 44 249 61 265 27 24 123 32 403 34 166 1 256
-3 270 -10z m4047 -1369 c0 -119 -58 -541 -102 -750 -34 -156 -35 -143 11
-193 85 -92 48 -114 -274 -162 -99 -15 -227 -36 -576 -95 -152 -26 -396 -31
-409 -10 -19 29 -10 49 40 91 28 23 50 47 50 52 0 6 -8 19 -17 30 -18 19 -20
41 -49 593 -10 193 -12 188 89 217 45 13 105 29 132 35 28 6 79 18 115 26 36
8 106 22 155 31 50 9 110 20 135 25 25 5 86 16 135 25 122 22 154 29 350 79
220 57 215 57 215 6z m-2252 -1186 c193 -37 332 -93 387 -157 45 -52 53 -91
28 -126 -28 -37 -98 -40 -206 -8 -129 39 -163 45 -303 58 -100 9 -154 9 -230
0 -90 -11 -154 -28 -154 -41 0 -3 64 -4 143 -1 78 2 201 -2 272 -9 151 -15
222 -40 328 -113 38 -26 72 -47 78 -47 16 0 10 -129 -8 -167 -19 -40 -69 -67
-146 -78 -85 -13 -73 -38 36 -76 138 -47 108 -114 -78 -177 -127 -43 -159 -51
-254 -63 -138 -17 -351 13 -503 72 -40 16 -52 3 -28 -31 27 -39 130 -102 215
-133 141 -50 365 -60 509 -22 36 9 63 12 68 7 15 -15 -27 -86 -78 -131 -147
-129 -411 -157 -677 -71 -61 20 -146 63 -234 119 -57 36 -83 35 -83 -2 0 -36
53 -109 142 -192 130 -122 267 -203 414 -245 37 -11 69 -21 71 -24 12 -12 -14
-28 -90 -52 -95 -31 -179 -34 -266 -8 -50 14 -147 61 -179 87 -24 19 -26 -3
-2 -28 31 -33 124 -87 196 -115 84 -32 213 -41 333 -24 117 16 171 18 171 3 0
-21 -151 -157 -254 -228 -58 -40 -111 -79 -117 -87 -24 -29 5 -37 121 -32 76
3 113 1 116 -6 2 -6 -10 -52 -27 -101 -45 -130 -70 -238 -59 -249 6 -6 30 -3
63 9 55 18 87 16 87 -7 0 -15 -84 -94 -169 -159 -50 -38 -88 -57 -165 -81 -89
-28 -115 -32 -221 -32 -89 -1 -137 4 -188 18 -37 10 -70 16 -74 12 -9 -9 34
-52 89 -87 104 -67 264 -114 428 -127 122 -9 126 -20 33 -95 -83 -67 -152
-103 -216 -112 -37 -6 -47 -11 -45 -24 3 -16 36 -25 258 -65 151 -28 186 -55
139 -105 -35 -37 -115 -66 -274 -97 -105 -21 -540 -31 -643 -15 -131 20 -323
99 -361 147 -38 49 -19 134 30 134 10 0 33 13 50 28 43 38 48 95 16 184 -13
36 -36 80 -50 97 -29 35 -43 87 -33 127 4 14 26 47 49 72 55 61 65 84 72 179
14 180 43 379 95 653 37 195 59 279 124 472 25 73 56 171 70 218 29 98 69 166
120 205 45 35 56 74 61 219 3 90 9 130 35 211 26 86 48 235 50 352 0 25 61 81
109 102 66 28 283 73 396 82 121 9 318 1 413 -17z m1722 -92 c47 -11 153 -28
235 -37 178 -20 191 -26 179 -95 -4 -25 -8 -112 -9 -195 0 -82 -4 -158 -9
-167 -4 -10 -28 -21 -59 -27 -99 -21 -222 -39 -297 -46 -145 -12 -230 -27
-230 -40 0 -15 41 -22 170 -31 72 -4 125 -1 221 15 70 11 133 23 141 26 42 16
51 -102 12 -146 -56 -62 -343 -159 -471 -159 -79 0 -95 -19 -35 -43 53 -20
149 -35 277 -42 60 -3 113 -9 119 -15 14 -14 -36 -84 -85 -120 -75 -54 -143
-74 -254 -74 -116 -1 -184 18 -255 70 -75 54 -149 140 -183 212 l-32 67 2 192
c2 292 33 443 106 521 33 36 152 112 216 139 65 27 110 26 241 -5z m-802
-1258 c74 -21 142 -45 222 -81 36 -16 84 -38 108 -48 59 -26 55 -45 -10 -44
-29 0 -75 4 -103 9 -128 22 -135 22 -135 12 0 -13 76 -50 143 -68 28 -8 75
-21 102 -29 28 -8 82 -22 120 -31 214 -50 249 -60 252 -71 3 -6 -10 -19 -27
-28 -41 -21 -174 -65 -225 -74 -49 -8 -49 -23 0 -35 25 -6 62 -3 118 8 45 9
119 23 165 32 58 11 87 13 94 6 7 -7 0 -42 -25 -114 -32 -93 -61 -187 -102
-333 -8 -27 -26 -88 -39 -135 -14 -47 -28 -108 -32 -137 -6 -51 -6 -52 27 -73
19 -11 46 -23 60 -26 39 -9 81 -46 74 -65 -3 -9 -24 -26 -45 -38 -86 -48 -232
-74 -430 -75 -159 -1 -244 12 -400 61 -178 57 -212 104 -196 280 23 246 61
538 87 666 20 101 28 131 75 275 13 40 24 83 24 97 0 33 17 75 31 75 6 0 36
-7 67 -16z m122 -1669 c36 0 167 4 292 9 208 8 228 7 234 -8 9 -23 -13 -73
-54 -124 -44 -55 -38 -77 31 -120 68 -43 84 -66 63 -95 -41 -59 -69 -78 -157
-107 -82 -28 -276 -60 -362 -60 -144 0 -306 57 -371 131 -38 44 -45 69 -23 87
14 12 182 42 235 42 48 0 152 33 152 48 0 7 -10 16 -22 21 -13 5 -72 28 -133
51 -114 44 -179 81 -189 107 -13 32 4 36 123 27 64 -5 145 -9 181 -9z m-2413
-515 c27 -12 57 -25 68 -30 92 -40 171 -56 375 -75 196 -20 295 -38 356 -66
45 -22 70 -51 59 -69 -11 -18 -60 -39 -141 -60 -174 -47 -230 -53 -464 -53
-233 0 -298 7 -371 44 -42 21 -107 92 -115 126 -15 59 31 152 94 191 42 25 67
23 139 -8z m2916 -81 c38 -17 37 -59 -3 -92 -32 -27 -153 -76 -270 -110 -102
-29 -337 -32 -387 -4 -67 36 -51 48 180 125 116 39 237 78 267 87 62 17 169
14 213 -6z m137 -345 c50 -32 134 -120 126 -133 -4 -6 -46 -30 -94 -54 -129
-65 -196 -114 -307 -226 -55 -56 -106 -101 -114 -101 -7 0 -47 29 -88 65 -41
36 -80 65 -87 65 -13 0 -103 -107 -125 -148 -16 -30 -55 -26 -59 6 -6 41 153
287 229 356 95 85 285 184 379 196 67 8 95 3 140 -26z m-2405 -124 c85 -13
167 -51 199 -93 34 -46 89 -157 81 -165 -4 -4 -68 -8 -143 -9 -141 -1 -212
-13 -377 -59 -106 -29 -139 -44 -221 -101 -77 -53 -124 -106 -221 -249 -42
-63 -80 -114 -85 -114 -18 0 -60 115 -65 179 -10 120 35 241 145 395 117 162
173 189 432 211 190 16 175 16 255 5z m2578 -76 c30 -16 81 -54 137 -104 14
-12 55 -47 93 -77 37 -31 67 -58 67 -62 0 -17 -27 -31 -57 -31 -18 0 -33 -5
-33 -11 0 -8 22 -10 76 -5 66 6 81 4 120 -14 24 -12 65 -43 91 -68 53 -53 123
-157 123 -182 0 -83 -369 -192 -640 -189 -127 1 -135 5 -133 62 2 72 78 224
148 293 57 57 65 78 21 54 -54 -28 -100 -77 -171 -179 -95 -136 -120 -161
-163 -161 -44 0 -127 25 -177 54 -34 19 -40 28 -43 61 -4 43 20 141 48 195 29
57 153 212 201 251 72 58 180 112 257 128 2 1 17 -6 35 -15z m-2353 -269 c24
-8 58 -26 75 -40 32 -24 241 -309 247 -336 3 -12 -37 -14 -252 -14 -227 -1
-264 -3 -335 -22 -221 -58 -295 -107 -427 -283 -19 -25 -43 -46 -53 -48 -27
-3 -111 54 -149 101 -29 36 -30 39 -18 84 19 70 69 185 105 240 17 26 69 87
116 134 70 70 102 94 171 127 81 39 177 66 265 76 70 7 210 -3 255 -19z m207
-445 c149 -13 218 -54 261 -153 19 -44 15 -110 -8 -140 -68 -86 -354 -151
-665 -150 -162 0 -247 12 -365 50 -82 27 -81 57 7 175 77 102 143 148 266 188
115 37 301 48 504 30z"/>
<path d="M10813 13963 c-43 -9 -23 -23 33 -23 40 0 55 4 52 13 -5 13 -47 18
-85 10z"/>
<path d="M10660 13950 c0 -5 11 -10 25 -10 14 0 25 5 25 10 0 6 -11 10 -25 10
-14 0 -25 -4 -25 -10z"/>
<path d="M9761 13902 c-14 -2 -52 -31 -86 -65 -96 -97 -100 -117 -91 -452 7
-279 23 -430 49 -481 34 -64 125 -124 190 -124 52 0 283 28 328 40 47 13 95
46 131 91 76 95 26 319 -72 319 -16 0 -30 5 -30 10 0 6 7 10 16 10 9 0 31 7
49 16 46 21 69 78 69 168 0 63 -3 77 -30 116 -37 55 -93 88 -176 101 -93 15
-173 3 -212 -31 l-31 -28 0 -104 c1 -111 11 -145 64 -201 39 -43 74 -57 138
-57 88 0 146 -46 167 -132 16 -68 -41 -106 -138 -93 -66 8 -121 34 -171 80
-22 20 -57 48 -78 61 -113 73 -139 134 -168 381 -17 140 -4 196 56 256 54 55
106 67 281 67 174 0 214 -11 280 -78 37 -38 55 -50 59 -41 6 15 -56 139 -79
158 -10 9 -86 13 -253 14 -131 1 -249 0 -262 -1z m275 -315 c7 -20 -11 -57
-49 -101 l-34 -38 -25 23 c-49 46 -42 95 17 120 32 13 85 10 91 -4z m-181
-574 c8 -19 15 -52 15 -72 0 -20 5 -42 12 -49 9 -9 9 -15 0 -24 -9 -9 -21 -7
-53 8 -52 23 -69 39 -69 67 0 29 58 120 70 112 6 -4 17 -22 25 -42z"/>
<path d="M7159 13808 c-39 -32 -87 -266 -58 -283 4 -3 16 6 25 20 14 21 24 25
64 25 40 0 50 4 55 20 4 12 21 24 48 31 30 8 57 27 93 65 55 58 59 59 99 44
23 -9 25 -13 15 -25 -7 -8 -21 -15 -32 -15 -34 0 -14 -24 40 -49 55 -26 64
-40 32 -48 -26 -7 -25 -11 6 -35 32 -25 22 -36 -36 -40 -45 -3 -60 -20 -24
-27 21 -3 54 -29 54 -43 0 -4 -13 -8 -30 -8 -30 0 -43 -24 -17 -33 9 -4 9 -7
0 -17 -16 -17 -88 -16 -177 4 -265 58 -250 56 -269 38 -27 -24 -19 -66 13 -70
50 -6 257 -55 330 -79 182 -59 168 -56 196 -38 36 23 97 124 139 230 21 49 43
102 51 117 39 73 -3 116 -136 143 -47 9 -141 31 -210 47 -145 36 -247 45 -271
26z"/>
<path d="M7360 13530 c0 -5 11 -10 25 -10 14 0 25 5 25 10 0 6 -11 10 -25 10
-14 0 -25 -4 -25 -10z"/>
<path d="M7007 13053 c-10 -15 12 -29 58 -37 175 -29 219 -38 284 -56 70 -20
116 -20 95 -1 -5 5 -61 28 -124 51 -95 35 -131 43 -211 47 -61 4 -98 2 -102
-4z"/>
<path d="M6818 12769 c-26 -15 -22 -31 16 -57 36 -24 74 -36 261 -79 125 -28
305 -39 315 -18 17 33 -428 166 -550 165 -14 0 -33 -5 -42 -11z"/>
<path d="M9895 11385 c-145 -21 -235 -46 -235 -67 0 -22 408 4 473 30 15 7 27
18 27 26 0 28 -109 33 -265 11z"/>
<path d="M9435 11069 c-9 -14 -2 -20 43 -36 150 -54 452 -102 523 -83 21 6 39
17 39 24 0 15 -96 39 -225 56 -49 6 -147 20 -216 31 -145 22 -156 23 -164 8z"/>
<path d="M8216 9969 c-65 -16 -102 -38 -135 -84 -35 -48 -28 -69 10 -29 13 14
40 34 59 44 39 19 193 50 253 50 38 0 50 13 21 24 -23 9 -163 5 -208 -5z"/>
<path d="M8321 6627 c-6 -8 -8 -17 -4 -20 7 -8 33 11 33 24 0 13 -16 11 -29
-4z"/>
<path d="M7451 4091 c-30 -23 -23 -34 35 -56 59 -22 71 -10 39 38 -29 42 -40
44 -74 18z"/>
<path d="M10770 6614 c-58 -7 -159 -18 -225 -23 -138 -12 -165 -18 -165 -37 0
-20 277 -19 382 1 83 16 149 42 156 63 4 14 -7 14 -148 -4z"/>
<path d="M9690 4452 c0 -30 33 -71 44 -54 8 13 -21 82 -34 82 -6 0 -10 -13
-10 -28z"/>
</g>
</svg>
